<svg xmlns="http://www.w3.org/2000/svg" width="180" height="180" viewBox="0 0 180 180" role="img" aria-label="Double pattie burger icon">
  <defs>
    <linearGradient id="bg" x1="0" y1="0" x2="0" y2="1">
      <stop offset="0" stop-color="#1f2937" />
      <stop offset="1" stop-color="#111827" />
    </linearGradient>
    <linearGradient id="bunTop" x1="0" y1="0" x2="0" y2="1">
      <stop offset="0" stop-color="#f9b347" />
      <stop offset="1" stop-color="#df8c2b" />
    </linearGradient>
    <linearGradient id="bunMid" x1="0" y1="0" x2="0" y2="1">
      <stop offset="0" stop-color="#f5bf66" />
      <stop offset="1" stop-color="#df983a" />
    </linearGradient>
    <linearGradient id="bunBottom" x1="0" y1="0" x2="0" y2="1">
      <stop offset="0" stop-color="#ecab4e" />
      <stop offset="1" stop-color="#cd7d1e" />
    </linearGradient>
  </defs>

  <rect x="4" y="4" width="172" height="172" rx="36" fill="url(#bg)" />

  <g transform="translate(18 18) scale(2.25)">
    <rect x="6" y="10" width="52" height="14" rx="7" fill="url(#bunTop)" />

    <ellipse cx="20" cy="15" rx="1.3" ry="0.9" fill="#fff2cc" transform="rotate(-12 20 15)" />
    <ellipse cx="28" cy="14" rx="1.4" ry="0.95" fill="#fff2cc" transform="rotate(8 28 14)" />
    <ellipse cx="36" cy="15" rx="1.2" ry="0.85" fill="#fff2cc" transform="rotate(-10 36 15)" />
    <ellipse cx="44" cy="14" rx="1.3" ry="0.9" fill="#fff2cc" transform="rotate(10 44 14)" />

    <rect x="8" y="24" width="48" height="3.8" rx="1.9" fill="#53b85c" />
    <rect x="8" y="27.5" width="48" height="3.1" rx="1.55" fill="#ffd64d" />

    <rect x="7" y="30.5" width="50" height="7.5" rx="3.75" fill="#5c2c1d" />

    <rect x="10" y="38" width="44" height="5.5" rx="2.75" fill="url(#bunMid)" />
    <rect x="9" y="43.2" width="46" height="2.8" rx="1.4" fill="#ffd64d" />

    <rect x="7" y="46" width="50" height="7.8" rx="3.9" fill="#4f2418" />

    <rect x="8" y="53" width="48" height="8.5" rx="4.25" fill="url(#bunBottom)" />
  </g>
</svg>
